<?xml version="1.0" standalone="no"?><!DOCTYPE svg PUBLIC "-//W3C//DTD SVG 1.1//EN" "http://www.w3.org/Graphics/SVG/1.1/DTD/svg11.dtd"><svg t="1736086529763" class="icon" viewBox="0 0 1024 1024" version="1.1" xmlns="http://www.w3.org/2000/svg" p-id="6278" xmlns:xlink="http://www.w3.org/1999/xlink" width="200" height="200"><path d="M1008.128 614.4a25.6 25.6 0 0 0-27.648 5.632l-142.848 142.848L259.072 186.88 401.92 43.52A25.6 25.6 0 0 0 384 0h-358.4a25.6 25.6 0 0 0-25.6 25.6v358.4a25.6 25.6 0 0 0 43.52 17.92l143.36-142.848 578.048 578.048-142.848 142.848a25.6 25.6 0 0 0 17.92 43.52h358.4a25.6 25.6 0 0 0 25.6-25.6v-358.4a25.6 25.6 0 0 0-15.872-25.088z" fill="#3E4055" p-id="6279"></path></svg>